# xmcd
# 
# Track frame offsets:
#     150
#     22737
#     44015
#     61565
#     79280
#     96577
#     114185
#     131740
#     162227
#     181242
#     191555
# 
# Disc length: 2823
# 
# Revision: 7
# Processed by: cddbd v1.5.2PL0 Copyright (c) Steve Scherf et al.
# Submitted via: fre:ac v1.0.31
# 
DISCID=8a0b050b
DTITLE=Robert Cray - Twenty
DYEAR=2005
DGENRE=Blues
TTITLE0=Poor Johnny
TTITLE1=That Ain't Love
TTITLE2=Does It Really Matter
TTITLE3=Fadin' Away
TTITLE4=My Last Regret
TTITLE5=It Doesn't Show
TTITLE6=I'm Walkin'
TTITLE7=Twenty
TTITLE8=I Know You Will
TTITLE9=I Forgot To Be Your Lover
TTITLE10=Two Steps From The End
EXTD=YEAR: 2005
EXTT0=
EXTT1=
EXTT2=
EXTT3=
EXTT4=
EXTT5=
EXTT6=
EXTT7=
EXTT8=
EXTT9=
EXTT10=
PLAYORDER=
